HIERARCHY
ROOT Hips
{
	OFFSET 0.000000 0.000000 0.000000 
	CHANNELS 6 Xposition Yposition Zposition Yrotation Xrotation Zrotation
	JOINT Spine
	{
		OFFSET 0.000000 0.072080 0.012321 
		CHANNELS 3 Xrotation Yrotation Zrotation
		JOINT Spine1
		{
			OFFSET 0.000000 0.126984 -0.001294 
			CHANNELS 3 Xrotation Yrotation Zrotation
			JOINT Spine2
			{
				OFFSET 0.000000 0.106559 -0.010096 
				CHANNELS 3 Xrotation Yrotation Zrotation
				JOINT Neck
				{
					OFFSET 0.000000 0.108417 -0.034017 
					CHANNELS 3 Xrotation Yrotation Zrotation
					JOINT Neck1
					{
						OFFSET 0.000000 0.033906 0.007241 
						CHANNELS 3 Xrotation Yrotation Zrotation
						JOINT Head
						{
							OFFSET 0.000000 0.031458 0.006707 
							CHANNELS 3 Xrotation Yrotation Zrotation
							End Site
							{
								OFFSET 0.000000 0.179920 0.000962 
							}
						}
					}
				}
				JOINT LeftShoulder
				{
					OFFSET 0.048002 0.079586 -0.029634 
					CHANNELS 3 Zrotation Xrotation Yrotation
					JOINT LeftArm
					{
						OFFSET 0.096243 -0.008695 -0.014012 
						CHANNELS 3 Zrotation Xrotation Yrotation
						JOINT LeftForeArm
						{
							OFFSET 0.216305 0.000000 0.000000 
							CHANNELS 3 Xrotation Zrotation Yrotation
							JOINT LeftHand
							{
								OFFSET 0.217764 0.000000 0.000000 
								CHANNELS 3 Zrotation Yrotation Xrotation
								JOINT LeftHandThumb1
								{
									OFFSET 0.018582 -0.007835 0.020476 
									CHANNELS 3 Zrotation Xrotation Yrotation
									JOINT LeftHandThumb2
									{
										OFFSET 0.026269 -0.007835 0.022186 
										CHANNELS 3 Zrotation Xrotation Yrotation
										JOINT LeftHandThumb3
										{
											OFFSET 0.035170 -0.010504 0.017018 
											CHANNELS 3 Zrotation Xrotation Yrotation
											End Site
											{
												OFFSET 0.020312 -0.007813 0.007813 
											}
										}
									}
								}
								JOINT LeftHandMiddle1
								{
									OFFSET 0.081749 0.004803 0.003358 
									CHANNELS 3 Zrotation Xrotation Yrotation
									JOINT LeftHandMiddle2
									{
										OFFSET 0.045251 0.000000 0.000000 
										CHANNELS 3 Zrotation Xrotation Yrotation
										JOINT LeftHandMiddle3
										{
											OFFSET 0.029009 0.000000 0.000000 
											CHANNELS 3 Zrotation Xrotation Yrotation
											End Site
											{
												OFFSET 0.017969 0.000000 0.000000 
											}
										}
									}
								}
								JOINT LeftHandIndex1
								{
									OFFSET 0.081207 0.004803 0.021137 
									CHANNELS 3 Zrotation Xrotation Yrotation
									JOINT LeftHandIndex2
									{
										OFFSET 0.043354 0.000000 0.000000 
										CHANNELS 3 Zrotation Xrotation Yrotation
										JOINT LeftHandIndex3
										{
											OFFSET 0.026493 0.000000 0.000000 
											CHANNELS 3 Zrotation Xrotation Yrotation
											End Site
											{
												OFFSET 0.019531 0.000000 0.000000 
											}
										}
									}
								}
								JOINT LeftHandRing1
								{
									OFFSET 0.080666 0.002509 -0.014652 
									CHANNELS 3 Zrotation Xrotation Yrotation
									JOINT LeftHandRing2
									{
										OFFSET 0.042541 0.000000 0.000000 
										CHANNELS 3 Zrotation Xrotation Yrotation
										JOINT LeftHandRing3
										{
											OFFSET 0.029009 0.000000 0.000000 
											CHANNELS 3 Zrotation Xrotation Yrotation
											End Site
											{
												OFFSET 0.015625 0.000000 0.000000 
											}
										}
									}
								}
								JOINT LeftHandPinky1
								{
									OFFSET 0.078227 -0.000612 -0.030993 
									CHANNELS 3 Zrotation Xrotation Yrotation
									JOINT LeftHandPinky2
									{
										OFFSET 0.028721 0.000000 0.000000 
										CHANNELS 3 Zrotation Xrotation Yrotation
										JOINT LeftHandPinky3
										{
											OFFSET 0.021963 0.000000 0.000000 
											CHANNELS 3 Zrotation Xrotation Yrotation
											End Site
											{
												OFFSET 0.022656 0.000000 0.000000 
											}
										}
									}
								}
							}
						}
					}
				}
				JOINT RightShoulder
				{
					OFFSET -0.047970 0.079586 -0.029634 
					CHANNELS 3 Zrotation Xrotation Yrotation
					JOINT RightArm
					{
						OFFSET -0.096274 -0.008695 -0.014012 
						CHANNELS 3 Zrotation Xrotation Yrotation
						JOINT RightForeArm
						{
							OFFSET -0.216305 0.000000 0.000000 
							CHANNELS 3 Xrotation Zrotation Yrotation
							JOINT RightHand
							{
								OFFSET -0.217764 0.000000 0.000000 
								CHANNELS 3 Zrotation Yrotation Xrotation
								JOINT RightHandThumb1
								{
									OFFSET -0.019670 -0.007318 0.019638 
									CHANNELS 3 Zrotation Xrotation Yrotation
									JOINT RightHandThumb2
									{
										OFFSET -0.025498 -0.008492 0.023179 
										CHANNELS 3 Zrotation Xrotation Yrotation
										JOINT RightHandThumb3
										{
											OFFSET -0.034504 -0.010705 0.016680 
											CHANNELS 3 Zrotation Xrotation Yrotation
											End Site
											{
												OFFSET -0.020312 -0.007813 0.007813 
											}
										}
									}
								}
								JOINT RightHandIndex1
								{
									OFFSET -0.081770 0.003825 0.021187 
									CHANNELS 3 Zrotation Xrotation Yrotation
									JOINT RightHandIndex2
									{
										OFFSET -0.042006 0.000000 0.000000 
										CHANNELS 3 Zrotation Xrotation Yrotation
										JOINT RightHandIndex3
										{
											OFFSET -0.026449 0.000000 0.000000 
											CHANNELS 3 Zrotation Xrotation Yrotation
											End Site
											{
												OFFSET -0.020312 0.000000 0.000000 
											}
										}
									}
								}
								JOINT RightHandMiddle1
								{
									OFFSET -0.084059 0.003825 0.003342 
									CHANNELS 3 Zrotation Xrotation Yrotation
									JOINT RightHandMiddle2
									{
										OFFSET -0.043881 0.000000 0.000000 
										CHANNELS 3 Zrotation Xrotation Yrotation
										JOINT RightHandMiddle3
										{
											OFFSET -0.029191 0.000000 0.000000 
											CHANNELS 3 Zrotation Xrotation Yrotation
											End Site
											{
												OFFSET -0.017969 0.000000 0.000000 
											}
										}
									}
								}
								JOINT RightHandRing1
								{
									OFFSET -0.081798 0.003030 -0.015127 
									CHANNELS 3 Zrotation Xrotation Yrotation
									JOINT RightHandRing2
									{
										OFFSET -0.042198 0.000000 0.000000 
										CHANNELS 3 Zrotation Xrotation Yrotation
										JOINT RightHandRing3
										{
											OFFSET -0.026497 0.000000 0.000000 
											CHANNELS 3 Zrotation Xrotation Yrotation
											End Site
											{
												OFFSET -0.017188 0.000000 0.000000 
											}
										}
									}
								}
								JOINT RightHandPinky1
								{
									OFFSET -0.077902 -0.000930 -0.030891 
									CHANNELS 3 Zrotation Xrotation Yrotation
									JOINT RightHandPinky2
									{
										OFFSET -0.028538 0.000000 0.000000 
										CHANNELS 3 Zrotation Xrotation Yrotation
										JOINT RightHandPinky3
										{
											OFFSET -0.021734 0.000000 0.000000 
											CHANNELS 3 Zrotation Xrotation Yrotation
											End Site
											{
												OFFSET -0.022656 0.000000 0.000000 
											}
										}
									}
								}
							}
						}
					}
				}
			}
		}
	}
	JOINT LeftUpLeg
	{
		OFFSET 0.075264 -0.025573 0.000000 
		CHANNELS 3 Xrotation Yrotation Zrotation
		JOINT LeftLeg
		{
			OFFSET 0.000000 -0.326016 -0.013516 
			CHANNELS 3 Xrotation Yrotation Zrotation
			JOINT LeftFoot
			{
				OFFSET 0.000098 -0.306172 -0.006623 
				CHANNELS 3 Xrotation Yrotation Zrotation
				JOINT LeftToeBase
				{
					OFFSET -0.001432 -0.095259 0.064705 
					CHANNELS 3 Xrotation Yrotation Zrotation
					End Site
					{
						OFFSET 0.000000 0.000000 0.079438 
					}
				}
			}
		}
	}
	JOINT RightUpLeg
	{
		OFFSET -0.075264 -0.025573 0.000000 
		CHANNELS 3 Xrotation Yrotation Zrotation
		JOINT RightLeg
		{
			OFFSET 0.000000 -0.326016 -0.013516 
			CHANNELS 3 Xrotation Yrotation Zrotation
			JOINT RightFoot
			{
				OFFSET 0.000098 -0.306172 -0.006623 
				CHANNELS 3 Xrotation Yrotation Zrotation
				JOINT RightToeBase
				{
					OFFSET -0.001432 -0.095259 0.064705 
					CHANNELS 3 Xrotation Yrotation Zrotation
					End Site
					{
						OFFSET 0.000025 0.000000 0.079438 
					}
				}
			}
		}
	}
}
MOTION
Frames: 4
Frame Time: 0.033333
-0.000184 0.742315 0.000019 2.861700 -4.307200 -1.667100 6.321300 2.219100 0.149100 0.584400 0.628600 0.173300 0.586600 0.622300 0.171100 -1.352800 0.196500 0.604600 -0.000000 0.000000 -0.000000 -1.737800 5.369100 -4.365800 -19.122601 1.606100 -2.750400 -60.948399 8.026800 -3.829800 -0.000000 0.000000 -6.440800 -3.791800 3.584300 4.362300 8.022800 2.294000 6.150500 -7.393500 10.001900 9.515500 20.248600 -22.824699 -18.272699 -35.002102 0.003200 0.307200 -31.301399 0.002200 -0.007800 -20.641800 0.001000 -0.005300 -25.661900 0.010300 -3.435700 -29.325100 0.001900 -0.007400 -16.695101 0.000600 -0.004300 -36.545601 0.003400 4.270500 -41.345200 0.003700 -0.009900 -15.854400 0.000600 -0.004100 -33.199200 -0.139100 1.512000 -28.580000 0.001800 -0.007200 -19.848801 0.000900 -0.005100 17.300200 1.003700 0.682200 56.049301 7.496700 5.889900 0.000000 0.000000 13.104500 1.132000 2.550700 12.892200 -3.824900 -2.713200 -4.257200 0.092900 9.000300 -15.027400 -17.157400 -9.625400 19.562799 20.020100 0.002500 1.916100 41.113201 0.001900 0.005200 18.580900 0.000400 0.002500 33.056999 0.001500 -0.856900 38.160400 0.001700 0.004900 14.637600 0.000300 0.002000 39.376499 0.002000 -3.844100 33.896900 0.001300 0.004400 17.175200 0.000400 0.002300 42.295898 0.002300 0.299500 38.474998 0.001700 0.004900 26.143101 0.000800 0.003500 -28.660000 5.417200 1.333000 64.619598 -0.166900 -1.190100 1.854300 -0.014800 0.894600 -2.297700 0.000000 -0.000000 -5.112100 -10.960000 -4.890900 18.709900 4.127800 1.420000 -9.371900 -0.207000 1.842400 -0.363900 -0.000000 -0.000000 
-0.001378 0.743096 0.031404 2.971200 -3.707900 -1.119200 6.181900 3.653400 -0.725400 0.595200 1.040600 0.010100 0.597900 1.035300 0.005300 -1.382600 0.094600 0.604600 -0.000000 0.000000 -0.000000 -2.086900 4.883400 -4.216600 -18.806299 1.384100 -1.949600 -62.279800 8.485300 -0.585800 -0.000000 0.000000 -7.079200 -4.546100 4.112100 5.164300 8.022800 2.294000 6.150500 -7.447600 10.001900 9.609000 20.442200 -22.983101 -18.337601 -35.319599 0.003300 0.218100 -31.279400 0.002200 -0.007800 -20.790199 0.001000 -0.005300 -26.114599 0.010400 -3.532500 -29.325100 0.001900 -0.007400 -16.499201 0.000600 -0.004300 -36.869202 0.003500 4.063500 -41.340199 0.003700 -0.009900 -15.940400 0.000600 -0.004100 -33.321400 -0.139100 1.355400 -28.568199 0.001800 -0.007200 -19.934500 0.000900 -0.005100 17.175501 1.168900 1.393700 54.363300 8.639100 8.719300 0.000000 0.000000 15.458400 1.550500 3.938800 9.383300 -3.824900 -2.713200 -4.257200 0.024200 8.970200 -14.905300 -17.600901 -9.731900 19.952299 19.725100 0.002500 1.876700 41.592300 0.002000 0.005200 18.550600 0.000400 0.002500 32.732498 0.001500 -0.845000 38.150501 0.001700 0.004900 14.614300 0.000300 0.002000 38.928699 0.002000 -3.803100 33.873901 0.001300 0.004400 17.198799 0.000400 0.002300 41.898899 0.002300 0.369300 38.389999 0.001700 0.004900 26.105801 0.000800 0.003500 -31.756901 5.367700 0.651900 56.130600 1.809900 -1.602500 0.343500 -0.038300 1.021400 -1.592500 0.000000 -0.000000 -2.759800 -11.323700 -4.949100 18.250000 4.126900 1.222100 -11.336600 -0.110900 1.003300 -0.562900 -0.000000 0.032400 
-0.001726 0.741209 0.062445 3.505200 -2.971600 -0.510800 5.992500 4.664400 -1.662300 0.581500 1.340900 -0.162100 0.583200 1.337000 -0.168800 -1.415900 0.000600 0.598200 -0.000000 0.000000 -0.000000 -2.472000 4.295600 -3.955300 -18.698500 1.231200 -1.367200 -63.178001 8.538400 2.997600 -0.000000 0.000000 -7.809500 -4.685000 3.998000 5.039100 8.022800 2.294000 6.150500 -7.463000 10.001900 9.635800 20.052200 -22.597300 -18.205900 -35.306801 0.003300 0.446800 -31.247400 0.002200 -0.007800 -20.917700 0.001000 -0.005400 -25.693899 0.010300 -3.487700 -29.325100 0.001900 -0.007400 -16.232901 0.000600 -0.004200 -36.694000 0.003500 3.962100 -41.183601 0.003700 -0.009900 -16.001301 0.000600 -0.004100 -33.002102 -0.139200 1.296500 -28.300501 0.001800 -0.007100 -20.000999 0.000900 -0.005100 17.299299 1.285100 1.854400 52.019699 9.773800 11.347200 -0.000000 0.000000 18.274500 0.859600 4.734900 6.812400 -3.825000 -2.713200 -4.257200 -0.024800 8.948700 -14.818000 -18.065201 -9.843000 20.363501 19.549801 0.002500 1.873000 41.544800 0.002000 0.005200 18.611601 0.000400 0.002500 32.300098 0.001400 -0.864600 38.205799 0.001700 0.004900 14.617600 0.000300 0.002000 38.422699 0.001900 -3.765000 33.804501 0.001300 0.004400 17.221500 0.000400 0.002300 41.415501 0.002200 0.394600 38.316299 0.001700 0.004900 26.103201 0.000800 0.003500 -33.182499 4.771700 -0.352900 44.398998 5.198800 -1.502200 0.379100 -0.053800 1.224600 -0.627200 0.000000 -0.000000 -0.587000 -11.763600 -5.114600 18.208500 3.646400 0.991500 -14.579500 -0.018700 0.340600 -0.520500 -0.000000 -0.000000 
-0.001215 0.737114 0.094068 4.374600 -2.471800 -0.053300 5.938700 5.417500 -2.470000 0.634200 1.571400 -0.278200 0.634900 1.567500 -0.287200 -1.452500 -0.104600 0.566900 -0.000000 0.000000 -0.000000 -3.204400 3.333000 -3.675200 -18.851801 1.131900 -0.949300 -63.761002 8.129900 6.256000 0.000000 -0.000000 -8.165000 -3.528700 3.569600 4.810900 8.022800 2.294000 6.150500 -7.495400 10.001900 9.691800 20.089500 -22.615801 -18.218100 -35.000599 0.003200 0.621700 -31.208401 0.002200 -0.007800 -20.927799 0.001000 -0.005400 -25.311600 0.010300 -3.296000 -29.325100 0.001900 -0.007400 -16.247000 0.000600 -0.004200 -36.351898 0.003400 4.035100 -41.046600 0.003700 -0.009900 -16.047899 0.000600 -0.004200 -32.704300 -0.135900 1.406600 -28.129999 0.001800 -0.007100 -20.022699 0.000900 -0.005100 17.491100 1.303200 1.890100 49.442501 10.077600 14.294600 -0.000000 0.000000 20.533199 -0.512800 4.959700 5.374300 -3.825000 -2.713200 -4.257200 -0.049500 8.937800 -14.773900 -18.356300 -9.908600 20.623699 19.314899 0.008200 1.863400 41.557800 0.002000 0.005300 18.670200 0.000400 0.002500 31.848200 0.001400 -0.869100 38.239700 0.001700 0.004900 14.651100 0.000200 0.002000 38.028702 0.001900 -3.735400 33.783001 0.001300 0.004400 17.223499 0.000400 0.002300 40.950802 0.002200 0.505900 38.242699 0.001700 0.004900 26.103300 0.000800 0.003500 -31.965401 4.096500 -1.320200 28.390800 8.432400 -1.005900 2.763200 -0.040700 1.342600 -0.412900 -0.000000 0.000000 1.990300 -12.608200 -5.383700 18.064199 3.136500 1.138500 -17.811800 0.042400 0.037500 -0.792200 -0.000000 -0.000000 
